<?xml version="1.0" encoding="UTF-8"?>
<svg viewBox="0 0 339.02707 349.74268" xmlns="http://www.w3.org/2000/svg">
 <g transform="translate(-174.77 -176.06)" stroke="#000">
  <path d="m345.12 520.62c-120.86 26.068-179.51-91.264-157.81-207.57 17.858-95.68 45.812-120.42 137.88-126.18 76.893 4.7562 154.35 10.171 157.02 63.072 3.4817 68.911 19.968 106.82 15.879 161.13-3.8888 51.648-92.689 110.34-152.98 109.55z" fill="#ffb380" stroke-linecap="round" stroke-width="3.0226"/>
  <path d="m231.43 343.79c47.525 5.3896 84.832 57.482 94.286 85.714" fill="none" stroke-width="2.757"/>
  <g transform="matrix(2.7161 -.16972 .14881 3.0978 -87.863 -1403.7)">
   <path d="m89.487 526.47c-29.223 10.42-22.518 25.344-19.536 40.478 3.133 15.832 12.462 17.849 20.892 16.476 6.2847-1.0231 6.7696-2.7844 7.0948-13.36 2.8588 6.6346 7.0743 10.903 11.938 10.906 5.2501 0.00363 9.7352-4.944 12.281-12.5 2.0386 7.2166 5.881 12.249 10.781 12.969 5.6014 0.82257 11.155-4.1772 14.781-12.312 1.0876 9.9851 5.2732 17.505 11.25 18.594 8.403 1.5303 17.118-10.189 19.469-26.156 7.0618-15.216 11.384-43.967-24.911-39.652-6.597-5.4975-21.08-4.2334-29.893-1.0045-16.716-3.4822-25.876 0.62531-34.147 5.5625z" fill="#ffb380" stroke-linecap="round" stroke-width=".949"/>
   <path d="m125.78 566c5.4396 3.7298 11.121 6.2514 18.44 0.58301" fill="none" stroke-width="1.1313"/>
   <path d="m90 526.65 7.5522 43.661" fill="none"/>
   <path d="m122.86 520.93-0.37984 47.113" fill="none"/>
   <path d="m154.29 522.36-7.0766 51.196" fill="none"/>
   <path d="m120.71 564.51c-9.4866 4.2485-14.052 3.5757-20 4.2857" fill="none"/>
   <path d="m93.571 568.79c-9.4866 4.2485-14.052 3.5757-20 4.2857" fill="none"/>
  </g>
  <path d="m356.63 512.67c59.445 26.425 128.13-54.105 134.75-62.593 16.155-20.709 33.448-70.119 8.6777-113.8-36.172-63.784-57.702-66.566-72.459-58.681-2.9719-0.33824-6.0174-0.2742-9.1809 0.2824-29.467 5.1846-52.189-1.851-65-0.89027-5.8233 0.43668-9.5909 2.5284-11.016 8.1647-5.6544 22.368 19.243 55.368 55.558 73.719 10.908 5.5122 9.5835 3.1703 19.376 4.8508 3.7757 7.68 21.934 36.629 14.885 25.617-22.154-34.606-90.694 33.633-80.452 65.465" fill="#ffb380" stroke-linecap="round" stroke-width="2.6484"/>
 </g>
</svg>
